<svg width="64px" height="64px" viewBox="0 0 64 64" version="1.1" xmlns="http://www.w3.org/2000/svg" xmlns:xlink="http://www.w3.org/1999/xlink">
    <title>Patching VMs</title>
    <defs>
        <linearGradient x1="50%" y1="0%" x2="50%" y2="100%" id="linearGradient-vm">
            <stop stop-color="#bbcf8dff" offset="0%"></stop>
            <stop stop-color="#bbcf8dff" offset="100%"></stop>
        </linearGradient>
    </defs>
    <g id="Patching-VMs" stroke="none" stroke-width="1" fill="none" fill-rule="evenodd">
        <rect id="Server-Body" fill="url(#linearGradient-vm)" x="10" y="28" width="44" height="28" rx="2"></rect>
        <circle id="Light-1" fill="#00C853" cx="16" cy="36" r="2"></circle>
        <circle id="Light-2" fill="#2962FF" cx="22" cy="36" r="2"></circle>
        <rect id="Slot-1" fill="#f0f3f5ff" x="30" y="34" width="18" height="4" rx="1"></rect>
        <rect id="Slot-2" fill="#f0f3f5ff" x="30" y="42" width="18" height="4" rx="1"></rect>
        <rect id="Slot-3" fill="#f0f3f5ff" x="30" y="50" width="18" height="4" rx="1"></rect>

        <g id="Patch" transform="translate(32.000000, 16.000000) rotate(-30.000000) translate(-32.000000, -16.000000) translate(14.000000, 8.000000)">
            <rect id="Bandage-Base" fill="#FFAB91" x="0" y="0" width="36" height="16" rx="8"></rect>
            <rect id="Bandage-Pad" fill="#FFCCBC" x="9" y="4" width="18" height="8" rx="4"></rect>
            <circle fill="#FFAB91" cx="12" cy="8" r="1"></circle>
            <circle fill="#FFAB91" cx="18" cy="8" r="1"></circle>
            <circle fill="#FFAB91" cx="24" cy="8" r="1"></circle>
        </g>
        
        <path d="M25,18 C25,18 21,22 21,26" stroke="#90A4AE" stroke-width="2" stroke-linecap="round" marker-end="url(#arrowhead)"></path>
    </g>
</svg>